<svg width="17" height="19" viewBox="0 0 17 19" fill="none" xmlns="http://www.w3.org/2000/svg">
<path d="M11.6666 4.16634V3.49967C11.6666 2.56625 11.6666 2.09954 11.4849 1.74302C11.3251 1.42942 11.0702 1.17445 10.7566 1.01466C10.4 0.833008 9.93334 0.833008 8.99992 0.833008H7.66658C6.73316 0.833008 6.26645 0.833008 5.90993 1.01466C5.59633 1.17445 5.34136 1.42942 5.18157 1.74302C4.99992 2.09954 4.99992 2.56625 4.99992 3.49967V4.16634M6.66659 8.74967V12.9163M9.99992 8.74967V12.9163M0.833252 4.16634H15.8333M14.1666 4.16634V13.4997C14.1666 14.8998 14.1666 15.5999 13.8941 16.1347C13.6544 16.6051 13.272 16.9875 12.8016 17.2272C12.2668 17.4997 11.5667 17.4997 10.1666 17.4997H6.49992C5.09979 17.4997 4.39972 17.4997 3.86494 17.2272C3.39454 16.9875 3.01209 16.6051 2.7724 16.1347C2.49992 15.5999 2.49992 14.8998 2.49992 13.4997V4.16634" stroke="#DC2626" stroke-width="1.66667" stroke-linecap="round" stroke-linejoin="round"/>
</svg>
