<svg width="24" height="24" viewBox="0 0 24 24" fill="none" xmlns="http://www.w3.org/2000/svg">
<path d="M16.207 6.00732H16.215" stroke="#155DFC" stroke-width="1.5" stroke-linecap="round" stroke-linejoin="round"/>
<path d="M18.0064 2.40527H5.40645C4.41233 2.40527 3.60645 3.21116 3.60645 4.20527V18.6053C3.60645 19.5994 4.41233 20.4053 5.40645 20.4053H18.0064C19.0006 20.4053 19.8064 19.5994 19.8064 18.6053V4.20527C19.8064 3.21116 19.0006 2.40527 18.0064 2.40527Z" stroke="#155DFC" stroke-width="1.5" stroke-linecap="round" stroke-linejoin="round"/>
<path d="M11.707 16.8086C14.1923 16.8086 16.207 14.7939 16.207 12.3086C16.207 9.82331 14.1923 7.80859 11.707 7.80859C9.22175 7.80859 7.20703 9.82331 7.20703 12.3086C7.20703 14.7939 9.22175 16.8086 11.707 16.8086Z" stroke="#155DFC" stroke-width="1.5" stroke-linecap="round" stroke-linejoin="round"/>
<path d="M11.707 16.8086C12.3038 16.8086 12.8761 16.5715 13.298 16.1496C13.72 15.7276 13.957 15.1553 13.957 14.5586C13.957 13.9619 13.72 13.3896 13.298 12.9676C12.8761 12.5456 12.3038 12.3086 11.707 12.3086C11.1103 12.3086 10.538 12.0715 10.116 11.6496C9.69408 11.2276 9.45703 10.6553 9.45703 10.0586C9.45703 9.46186 9.69408 8.88956 10.116 8.4676C10.538 8.04565 11.1103 7.80859 11.707 7.80859" stroke="#155DFC" stroke-width="1.5" stroke-linecap="round" stroke-linejoin="round"/>
</svg>
