<svg width="17" height="21" viewBox="0 0 17 21" fill="none" xmlns="http://www.w3.org/2000/svg">
<path d="M15.9568 11.2051C15.9568 15.9573 12.6303 18.3333 8.67656 19.7115C8.46952 19.7816 8.24463 19.7783 8.03978 19.7019C4.0765 18.3333 0.75 15.9573 0.75 11.2051V4.55214C0.75 4.30007 0.850134 4.05832 1.02837 3.88008C1.20661 3.70184 1.44836 3.60171 1.70043 3.60171C3.60128 3.60171 5.97735 2.4612 7.63109 1.01655C7.83245 0.844518 8.08858 0.75 8.35342 0.75C8.61825 0.75 8.87439 0.844518 9.07574 1.01655C10.739 2.4707 13.1056 3.60171 15.0064 3.60171C15.2585 3.60171 15.5002 3.70184 15.6785 3.88008C15.8567 4.05832 15.9568 4.30007 15.9568 4.55214V11.2051Z" stroke="#155DFC" stroke-width="1.5" stroke-linecap="round" stroke-linejoin="round"/>
</svg>
